<svg width="76" height="19" viewBox="0 0 76 19" fill="none" xmlns="http://www.w3.org/2000/svg">
<path fill-rule="evenodd" clip-rule="evenodd" d="M75.8822 15.0476C72.7063 20.4321 67.6766 18.8697 66.166 17.6464C65.5231 18.0826 64.3958 19.0387 62.8926 18.9283C59.6913 18.6933 58.5449 14.1185 58.5449 14.1185C58.5679 14.1368 57.5913 14.4555 57.0635 14.4498C57.0567 15.7914 55.897 18.9962 52.7672 18.9552C49.2551 18.9094 48.5411 13.677 48.5411 13.677C48.5411 13.677 48.1916 14.1623 46.8627 14.6457C46.9296 13.615 46.8807 18.7983 42.6713 18.8745C39.3435 18.9348 38.4452 13.5963 38.4452 13.5963C38.4452 13.5963 37.8679 14.196 36.7491 14.404C36.8202 13.3565 36.7046 18.8921 32.4947 18.8745C29.6497 18.8627 28.6775 15.586 28.7531 15.1312C28.8496 14.5516 27.7916 18.956 25.0281 18.8874C23.8877 18.8539 23.0375 18.0282 22.504 16.9274C21.7898 17.7446 20.7529 18.8874 19.5897 18.8874C17.5017 18.8874 16.5812 17.141 16.7371 12.153C16.7504 11.5614 16.7077 11.3287 16.1196 11.2402C15.7666 11.1813 15.4051 11.0698 15.0226 11.011C14.9 11.4201 13.8602 18.7543 10.2847 18.8935C9.08519 18.9402 8.4293 17.9011 7.89066 17.1299C7.06497 18.2222 5.97501 18.9283 4.42227 18.9283C1.79205 18.9283 0 16.802 0 14.1791C0 11.5561 1.79205 9.43005 4.42227 9.43005C4.88732 9.43005 5.01787 9.49671 5.44272 9.62066C4.569 1.66566 6.63238 0.422412 8.43739 0.422412C10.1703 0.422412 13.1308 4.44447 8.96512 14.6465C9.88998 17.6895 11.8838 17.5174 12.8419 11.2532C13.0369 9.9799 12.5155 8.26161 13.3265 8.02179C14.809 7.58351 14.9663 8.89849 15.6614 9.11759C16.3964 9.34915 16.8254 9.32654 17.531 9.4739C18.7367 9.70936 19.2072 10.3571 19.0603 11.7996C18.8839 13.6249 18.5753 16.2816 19.5162 16.6054C20.1947 16.8406 21.4335 15.4335 21.6509 14.6636C21.8682 13.8937 21.9136 13.6302 21.9329 13.0655C21.9623 11.8586 21.9992 10.9739 22.205 10.0612C22.2931 9.70798 22.3935 9.4741 22.7931 9.45811C23.1219 9.44973 23.7232 9.35071 23.9879 9.55674C24.3407 9.82182 24.2966 10.0908 24.2561 10.7987C23.8458 20.8921 27.0038 15.8534 27.9454 11.8189C27.6101 7.25686 27.8403 0.505951 30.6991 0.392726C32.1859 0.333843 32.8432 1.52494 32.9155 2.41398C33.12 4.92495 31.9745 9.08434 30.468 11.8815C29.607 17.589 34.2325 18.7175 34.9722 14.1618C33.762 13.5864 32.4541 11.2574 33.5184 10.1224C34.1156 9.48545 36.6015 10.4005 36.6422 12.3963C37.8616 12.0702 38.0244 11.3817 38.0413 11.4958C37.7061 6.93374 38.017 0.50601 40.876 0.392784C42.3626 0.333901 43.0198 1.525 43.0921 2.41404C43.2966 4.925 42.1511 9.0844 40.6448 11.8816C39.7837 17.589 44.4093 18.7176 45.1488 14.1619C44.2528 13.989 42.3614 11.5118 43.4527 10.1225C44.0359 9.38006 46.5127 10.924 46.79 12.4624C47.9614 12.1309 48.1205 11.4643 48.1373 11.5765C47.802 7.01459 48.1129 0.58686 50.9719 0.473635C52.4585 0.414751 53.1157 1.60584 53.188 2.49488C53.3925 5.00586 52.247 9.16534 50.7405 11.9625C49.8796 17.67 54.5051 18.7983 55.2448 14.2426C54.0135 14.0376 52.2636 11.422 53.672 10.084C54.2347 9.54931 56.3848 10.9371 56.8881 12.5204C57.5874 12.4935 58.0227 12.2523 58.116 12.228C56.9996 6.87243 57.8307 0.446503 60.9062 0.392863C62.5685 0.363899 64.1936 1.29153 63.4803 6.38666C62.7994 11.248 60.3519 13.2881 60.3576 13.3193C60.5 13.9017 61.7559 18.7757 64.9185 16.204C64.7548 15.8333 64.5909 15.4546 64.4993 14.9958C63.9751 12.3233 65.0047 9.30472 67.8032 8.81684C69.4066 8.53734 70.917 9.31796 71.1558 11.0778C71.5487 13.9575 68.9484 16.043 67.9596 16.4954C67.5167 16.2438 71.9742 19.1026 74.6196 13.3735C74.773 13.0464 74.9579 13.0741 75.1975 13.2427C75.3667 13.3618 76.3305 14.2748 75.8822 15.0476ZM6.33552 13.4715C6.20092 13.0691 5.92469 12.1824 5.82701 11.7982C5.28905 11.3304 4.90507 11.2544 4.21455 11.2544C2.68 11.2544 1.77679 12.6732 1.77679 14.2031C1.77679 15.7329 2.76077 17.1519 4.29533 17.1519C5.6252 17.1519 6.63735 16.2477 6.94615 14.9677C6.73001 14.4687 6.5156 14.0101 6.33552 13.4715ZM8.39979 2.52816C7.32153 2.52816 6.95576 5.10036 7.02674 7.29468C7.08953 9.23473 7.63164 10.9427 7.91286 11.708C7.98426 11.8039 7.971 11.7415 8.03474 11.8432C9.90694 7.74115 9.13041 2.52816 8.39979 2.52816ZM30.8531 2.60895C29.4595 2.44912 29.4685 8.25452 29.6415 9.55674C30.3653 8.39886 31.6226 2.92071 30.8531 2.60895ZM41.0297 2.60895C39.6361 2.44912 39.6451 8.25452 39.8182 9.55674C40.5419 8.39886 41.7993 2.92071 41.0297 2.60895ZM51.1257 2.68972C49.732 2.52989 49.741 8.33531 49.9141 9.63762C50.6378 8.47964 51.8952 3.00146 51.1257 2.68972ZM61.06 2.26911C58.8887 2.70513 59.3943 9.94462 59.7241 11.2143C62.2817 7.70148 62.3344 2.13716 61.06 2.26911ZM69.1975 11.316C69.0871 10.8544 68.5351 10.6077 68.1541 10.6685C67.0639 10.8174 66.0065 12.1752 66.4158 14.2424C66.5069 14.7028 66.7349 15.1266 66.7312 15.1125C69.1711 13.4756 69.3785 12.1857 69.1975 11.316ZM23.2205 7.86021C22.9089 7.86027 22.6043 7.76791 22.3452 7.59484C22.0861 7.42176 21.8841 7.17575 21.7648 6.88788C21.6455 6.60002 21.6143 6.28324 21.6751 5.97762C21.7358 5.672 21.8859 5.39127 22.1062 5.17093C22.3265 4.95058 22.6072 4.80052 22.9128 4.73972C23.2184 4.67892 23.5352 4.7101 23.8231 4.82935C24.111 4.94859 24.357 5.15054 24.5301 5.40963C24.7032 5.66872 24.7956 5.97332 24.7956 6.28491C24.7956 6.49178 24.7549 6.69661 24.6757 6.88772C24.5966 7.07885 24.4806 7.2525 24.3343 7.39878C24.188 7.54505 24.0144 7.66109 23.8233 7.74026C23.6322 7.81944 23.4274 7.8602 23.2205 7.86021Z" fill="#0D0C22"/>
</svg>
